<svg width="19" height="16" viewBox="0 0 19 16" fill="none" xmlns="http://www.w3.org/2000/svg">
<path d="M16.9048 3.92507C16.9162 4.08781 16.9162 4.25055 16.9162 4.41479C16.9162 9.41922 13.0592 15.1909 6.00644 15.1909V15.1879C3.92304 15.1909 1.88291 14.6014 0.129028 13.49C0.431972 13.526 0.736434 13.544 1.04166 13.5447C2.76821 13.5462 4.44541 12.974 5.80372 11.9203C4.16296 11.8896 2.72417 10.8329 2.22154 9.29023C2.7963 9.39972 3.38852 9.37722 3.95265 9.22498C2.16384 8.86801 0.876897 7.3156 0.876897 5.51272C0.876897 5.49622 0.876897 5.48047 0.876897 5.46472C1.4099 5.75795 2.00667 5.92069 2.61711 5.93869C0.932323 4.82651 0.41299 2.61265 1.4304 0.88176C3.37713 3.24786 6.2494 4.68627 9.33275 4.83851C9.02373 3.52309 9.44588 2.14468 10.442 1.21999C11.9864 -0.213921 14.4152 -0.140425 15.8669 1.38423C16.7256 1.21699 17.5487 0.905759 18.3019 0.464787C18.0156 1.34148 17.4166 2.08618 16.6163 2.5594C17.3763 2.47091 18.1189 2.26992 18.8181 1.96319C18.3034 2.72514 17.655 3.38885 16.9048 3.92507Z" fill="#1D9BF0"/>
</svg>
